# Made in Blockbench 4.10.4
mtllib iron_drill.mtl

o cone
v 0.5 0 0.5
v 0.5 1 0.5
v 0.7886751345948129 0 1
v 1.0773502691896257 0 0.5
v 0.7886751345948129 0 0
v 0.21132486540518708 0 5.551115123125783e-17
v -0.07735026918962573 0 0.4999999999999999
v 0.21132486540518686 0 0.9999999999999998
vt 1 0.5
vt 1 1
vt 0.42264999999999997 0.5
vt 0.0625 0.006968749999999968
vt 0.63985 0.006968749999999968
vt 0.351175 1
vt 1 0
vt 1 0.5
vt 0.42264999999999997 0.5
vt 0.0625 0.006968749999999968
vt 0.63985 0.006968749999999968
vt 0.351175 1
vt 0.1875 0
vt 0.76485 0
vt 0.476175 0.5
vt 0.0625 0.006968749999999968
vt 0.63985 0.006968749999999968
vt 0.351175 1
vt 0 0.8125
vt 0 0.3125
vt 0.57735 0.8125
vt 0.0625 0.006968749999999968
vt 0.63985 0.006968749999999968
vt 0.351175 1
vt 0 0.9375
vt 0 0.4375
vt 0.57735 0.4375
vt 0.0625 0.006968749999999968
vt 0.63985 0.006968749999999968
vt 0.351175 1
vt 0.63985 1
vt 0.0625 1
vt 0.351175 0.5
vt 0.0625 0.006968749999999968
vt 0.63985 0.006968749999999968
vt 0.351175 1
vn 0 -1 0
vn 0.7745966692414835 0.44721359549995804 0.4472135954999581
vn 0 -1 0
vn 0.7745966692414834 0.4472135954999579 -0.447213595499958
vn 0 -1 0
vn -8.599750569898519e-17 0.44721359549995804 -0.8944271909999161
vn 0 -1 0
vn -0.7745966692414834 0.4472135954999579 -0.447213595499958
vn 0 -1 0
vn -0.7745966692414836 0.4472135954999579 0.44721359549995765
vn 0 -1 0
vn -2.5799251709695545e-16 0.447213595499958 0.8944271909999161
usemtl texture0
f 4/1/1 3/2/1 1/3/1
f 3/4/2 4/5/2 2/6/2
f 5/7/3 4/8/3 1/9/3
f 4/10/4 5/11/4 2/12/4
f 6/13/5 5/14/5 1/15/5
f 5/16/6 6/17/6 2/18/6
f 7/19/7 6/20/7 1/21/7
f 6/22/8 7/23/8 2/24/8
f 8/25/9 7/26/9 1/27/9
f 7/28/10 8/29/10 2/30/10
f 3/31/11 8/32/11 1/33/11
f 8/34/12 3/35/12 2/36/12