# Made in Blockbench 4.12.4
mtllib rs25_engine.mtl

o tube
v 0.1736480285692655 0 1
v 0.07745510970447773 2 0.4375
v 0.16004722151952105 0 0.921676875
v 0.07138869551783333 2 0.40323375
v 0.49999969224765695 0 0.879385
v 0.22302258348243933 2 0.38473125
v 0.46083820659168595 0 0.81050875
v 0.2055545604896463 2 0.3545975
v 0.7660442067775683 0 0.65270375
v 0.34169065596180914 2 0.285558125
v 0.7060448099721608 0 0.601581875
v 0.31492851220822776 2 0.263191875
v 0.9396922353468339 0 0.34729625
v 0.4191457656662869 2 0.151941875
v 0.866092646996368 0 0.320095
v 0.3863165922213749 2 0.14004125
v 1 0 0
v 0.4460457824695649 2 0
v 0.9216764131833719 0 0
v 0.41110973648397875 2 0
v 0.9396922353468339 0 -0.34729625
v 0.4191457656662869 2 -0.151941875
v 0.866092646996368 0 -0.320095
v 0.3863165922213749 2 -0.14004125
v 0.7660442067775683 0 -0.65270375
v 0.34169065596180914 2 -0.285558125
v 0.7060448099721608 0 -0.601581875
v 0.31492851220822776 2 -0.263191875
v 0.49999969224765695 0 -0.879385
v 0.22302258348243933 2 -0.38473125
v 0.46083820659168595 0 -0.81050875
v 0.2055545604896463 2 -0.3545975
v 0.1736480285692655 0 -1
v 0.07745510970447773 2 -0.4375
v 0.16004722151952105 0 -0.921676875
v 0.07138869551783333 2 -0.40323375
v -0.1736480285692655 0 -1
v -0.07745510970447773 2 -0.4375
v -0.16004722151952105 0 -0.921676875
v -0.07138869551783333 2 -0.40323375
v -0.49999969224765695 0 -0.879385
v -0.22302258348243933 2 -0.38473125
v -0.46083820659168595 0 -0.81050875
v -0.2055545604896463 2 -0.3545975
v -0.7660442067775683 0 -0.65270375
v -0.34169065596180914 2 -0.285558125
v -0.7060448099721608 0 -0.601581875
v -0.31492851220822776 2 -0.263191875
v -0.9396922353468339 0 -0.34729625
v -0.4191457656662869 2 -0.151941875
v -0.866092646996368 0 -0.320095
v -0.3863165922213749 2 -0.14004125
v -1 0 0
v -0.4460457824695649 2 0
v -0.9216764131833719 0 0
v -0.41110973648397875 2 0
v -0.9396922353468339 0 0.34729625
v -0.4191457656662869 2 0.151941875
v -0.866092646996368 0 0.320095
v -0.3863165922213749 2 0.14004125
v -0.7660442067775683 0 0.65270375
v -0.34169065596180914 2 0.285558125
v -0.7060448099721608 0 0.601581875
v -0.31492851220822776 2 0.263191875
v -0.49999969224765695 0 0.879385
v -0.22302258348243933 2 0.38473125
v -0.46083820659168595 0 0.81050875
v -0.2055545604896463 2 0.3545975
v -0.1736480285692655 0 1
v -0.07745510970447773 2 0.4375
v -0.16004722151952105 0 0.921676875
v -0.07138869551783333 2 0.40323375
vt 0.131415625 0.407133125
vt 0.17530765625 0.411212890625
vt 0.13874296875 0.676145546875
vt 0.11920625 0.674361875
vt 0.4596890625 0.6271609375
vt 0.441670546875 0.628684921875
vt 0.40795671875 0.36481328125
vt 0.44843515625 0.361328515625
vt 0.14726796875 0.990209375
vt 0.185446875 0.97631328125
vt 0.1904171875 0.9849234375
vt 0.14899375 1
vt 0.097721875 0.8515625
vt 0.1161984375 0.85815859375
vt 0.11398125 0.861925
vt 0.0969515625 0.85584609375
vt 0.17530765625 0.411212890625
vt 0.21863609375 0.419324765625
vt 0.157925859375 0.6796875
vt 0.138742890625 0.6761461718749999
vt 0.441670546875 0.628684921875
vt 0.423947578125 0.6317121875
vt 0.36792515625 0.37174585937500004
vt 0.40795671875 0.36481296875
vt 0.185446875 0.97631328125
vt 0.2165703125 0.95019765625
vt 0.2241859375 0.95658828125
vt 0.1904171875 0.9849234375
vt 0.1161984375 0.85815859375
vt 0.1312609375 0.87055546875
vt 0.1278640625 0.87335078125
vt 0.11398125 0.861925
vt 0.20368578125 0.27861039062500004
vt 0.247582421875 0.27457968749999995
vt 0.26015734375 0.541545859375
vt 0.240862734375 0.543359921875
vt 0.667106875 0.48004390625000004
vt 0.64931046875 0.47850859375
vt 0.66068703125 0.212891015625
vt 0.701171875 0.21630125
vt 0.2165703125 0.95019765625
vt 0.23688515625 0.91501171875
vt 0.2462265625 0.91841171875
vt 0.2241859375 0.95658828125
vt 0.1312609375 0.87055546875
vt 0.1410921875 0.88725703125
vt 0.136925 0.88874453125
vt 0.1278640625 0.87335078125
vt 0.247582421875 0.27457968749999995
vt 0.291663671875 0.27457968749999995
vt 0.279454296875 0.5415296875
vt 0.260157421875 0.5415460937500001
vt 0.64931046875 0.47850859375
vt 0.63152453125 0.47850859375
vt 0.620058125 0.21292343749999998
vt 0.66068703125 0.212890625
vt 0.23688515625 0.91501171875
vt 0.24393984375 0.875
vt 0.25388125 0.875
vt 0.2462265625 0.91841171875
vt 0.1410921875 0.88725703125
vt 0.14450625 0.90625
vt 0.140071875 0.90625
vt 0.136925 0.88874453125
vt 0.291663671875 0.27457968749999995
vt 0.335560859375 0.27860351562499996
vt 0.2986690625 0.5433075
vt 0.279454296875 0.5415296875
vt 0.63152453125 0.47850859375
vt 0.61380484375 0.48004148437500005
vt 0.579577578125 0.21639242187499996
vt 0.620058125 0.21292343749999998
vt 0.24393984375 0.875
vt 0.23688515625 0.83498828125
vt 0.2462265625 0.83158828125
vt 0.25388125 0.875
vt 0.14450625 0.90625
vt 0.1410921875 0.92524296875
vt 0.136925 0.92375546875
vt 0.140071875 0.90625
vt 0.335560859375 0.27860351562499996
vt 0.37890625 0.286624296875
vt 0.317717578125 0.546875
vt 0.298669140625 0.543307265625
vt 0.61380484375 0.48004148437500005
vt 0.596206953125 0.483104921875
vt 0.539537265625 0.22327890625000002
vt 0.57957765625 0.21639281249999998
vt 0.23688515625 0.83498828125
vt 0.2165703125 0.79980234375
vt 0.2241859375 0.79341171875
vt 0.2462265625 0.83158828125
vt 0.1410921875 0.92524296875
vt 0.1312609375 0.94194453125
vt 0.1278640625 0.93914921875
vt 0.136925 0.92375546875
vt 0.18761390625 0.55994984375
vt 0.23094234375 0.551837890625
vt 0.267506953125 0.816770390625
vt 0.248324140625 0.8203125
vt 0.513552421875 0.9988996875
vt 0.495829453125 0.995872421875
vt 0.52954328125 0.73200046875
vt 0.56957484375 0.738933359375
vt 0.2165703125 0.79980234375
vt 0.185446875 0.7736867187500001
vt 0.1904171875 0.7650765625
vt 0.2241859375 0.79341171875
vt 0.1312609375 0.94194453125
vt 0.1161984375 0.95434140625
vt 0.11398125 0.950575
vt 0.1278640625 0.93914921875
vt 0.23094234375 0.551837890625
vt 0.274834375 0.547758125
vt 0.28704375 0.814986875
vt 0.26750703125 0.816770546875
vt 0.495829453125 0.995872421875
vt 0.4778109375 0.9943484375
vt 0.48906484375 0.728516015625
vt 0.52954328125 0.73200078125
vt 0.185446875 0.7736867187500001
vt 0.14726796875 0.7597906249999999
vt 0.14899375 0.75
vt 0.1904171875 0.7650765625
vt 0.1161984375 0.95434140625
vt 0.097721875 0.9609375
vt 0.0969515625 0.95665390625
vt 0.11398125 0.950575
vt 0.274834375 0.547758125
vt 0.318915625 0.547758125
vt 0.30670625 0.81498703125
vt 0.28704375 0.81498703125
vt 0.4778109375 0.9943484375
vt 0.4596890625 0.9943484375
vt 0.44843515625 0.728515625
vt 0.48906484375 0.728515625
vt 0.14726796875 0.7597906249999999
vt 0.10663828125 0.7597906249999999
vt 0.1049125 0.75
vt 0.14899375 0.75
vt 0.097721875 0.9609375
vt 0.078059375 0.9609375
vt 0.0788296875 0.95665390625
vt 0.0969515625 0.95665390625
vt 0.318915625 0.547758125
vt 0.36280765625 0.551837890625
vt 0.32624296875 0.816770546875
vt 0.30670625 0.814986875
vt 0.4596890625 0.9943484375
vt 0.441670546875 0.995872421875
vt 0.40795671875 0.73200078125
vt 0.44843515625 0.728516015625
vt 0.10663828125 0.7597906249999999
vt 0.068459375 0.7736867187500001
vt 0.0634890625 0.7650765625
vt 0.1049125 0.75
vt 0.078059375 0.9609375
vt 0.0595828125 0.95434140625
vt 0.0618 0.950575
vt 0.0788296875 0.95665390625
vt 0.36280765625 0.551837890625
vt 0.40613609375 0.559949765625
vt 0.345425859375 0.8203125
vt 0.326242890625 0.816771171875
vt 0.441670546875 0.995872421875
vt 0.423947578125 0.9988996875
vt 0.36792515625 0.738933359375
vt 0.40795671875 0.73200046875
vt 0.068459375 0.7736867187500001
vt 0.0373359375 0.79980234375
vt 0.0297203125 0.79341171875
vt 0.0634890625 0.7650765625
vt 0.0595828125 0.95434140625
vt 0.0445203125 0.94194453125
vt 0.0479171875 0.93914921875
vt 0.0618 0.950575
vt 0.54743578125 0.5676728906249999
vt 0.591332421875 0.5636421875
vt 0.60390734375 0.830608359375
vt 0.584612734375 0.832422421875
vt 0.128044375 0.40191890625000004
vt 0.11024796875 0.40038359375
vt 0.12162453125 0.134766015625
vt 0.162109375 0.13817625
vt 0.0373359375 0.79980234375
vt 0.01702109375 0.83498828125
vt 0.0076796875 0.83158828125
vt 0.0297203125 0.79341171875
vt 0.0445203125 0.94194453125
vt 0.0346890625 0.92524296875
vt 0.03885625 0.92375546875
vt 0.0479171875 0.93914921875
vt 0.591332421875 0.5636421875
vt 0.635413671875 0.5636421875
vt 0.623204296875 0.8305921875
vt 0.603907421875 0.8306085937500001
vt 0.11024796875 0.40038359375
vt 0.09246203125 0.40038359375
vt 0.080995625 0.13479843749999998
vt 0.12162453125 0.134765625
vt 0.01702109375 0.83498828125
vt 0.00996640625 0.875
vt 0.000025 0.875
vt 0.0076796875 0.83158828125
vt 0.0346890625 0.92524296875
vt 0.031275 0.90625
vt 0.035709375 0.90625
vt 0.03885625 0.92375546875
vt 0.635413671875 0.5636421875
vt 0.679310859375 0.567666015625
vt 0.6424190625 0.83237
vt 0.623204296875 0.8305921875
vt 0.09246203125 0.40038359375
vt 0.07474234375 0.40191648437500005
vt 0.040515078125 0.13826742187499996
vt 0.080995625 0.13479843749999998
vt 0.00996640625 0.875
vt 0.01702109375 0.91501171875
vt 0.0076796875 0.91841171875
vt 0.000025 0.875
vt 0.031275 0.90625
vt 0.0346890625 0.88725703125
vt 0.03885625 0.88874453125
vt 0.035709375 0.90625
vt 0.679310859375 0.567666015625
vt 0.72265625 0.575686796875
vt 0.661467578125 0.8359375
vt 0.642419140625 0.832369765625
vt 0.07474234375 0.40191648437500005
vt 0.057144453125 0.404979921875
vt 0.000474765625 0.14515390625000002
vt 0.04051515625 0.13826781249999998
vt 0.01702109375 0.91501171875
vt 0.0373359375 0.95019765625
vt 0.0297203125 0.95658828125
vt 0.0076796875 0.91841171875
vt 0.0346890625 0.88725703125
vt 0.0445203125 0.87055546875
vt 0.0479171875 0.87335078125
vt 0.03885625 0.88874453125
vt 0.00011390625 0.41932484375
vt 0.04344234375 0.411212890625
vt 0.080006953125 0.676145390625
vt 0.060824140625 0.6796875
vt 0.513552421875 0.6317121875
vt 0.495829453125 0.628684921875
vt 0.52954328125 0.36481296875
vt 0.56957484375 0.37174585937500004
vt 0.0373359375 0.95019765625
vt 0.068459375 0.97631328125
vt 0.0634890625 0.9849234375
vt 0.0297203125 0.95658828125
vt 0.0445203125 0.87055546875
vt 0.0595828125 0.85815859375
vt 0.0618 0.861925
vt 0.0479171875 0.87335078125
vt 0.04344234375 0.411212890625
vt 0.087334375 0.407133125
vt 0.09954375 0.674361875
vt 0.08000703125 0.676145546875
vt 0.495829453125 0.628684921875
vt 0.4778109375 0.6271609375
vt 0.48906484375 0.361328515625
vt 0.52954328125 0.36481328125
vt 0.068459375 0.97631328125
vt 0.10663828125 0.990209375
vt 0.1049125 1
vt 0.0634890625 0.9849234375
vt 0.0595828125 0.85815859375
vt 0.078059375 0.8515625
vt 0.0788296875 0.85584609375
vt 0.0618 0.861925
vt 0.087334375 0.407133125
vt 0.131415625 0.407133125
vt 0.11920625 0.67436203125
vt 0.09954375 0.67436203125
vt 0.4778109375 0.6271609375
vt 0.4596890625 0.6271609375
vt 0.44843515625 0.361328125
vt 0.48906484375 0.361328125
vt 0.10663828125 0.990209375
vt 0.14726796875 0.990209375
vt 0.14899375 1
vt 0.1049125 1
vt 0.078059375 0.8515625
vt 0.097721875 0.8515625
vt 0.0969515625 0.85584609375
vt 0.0788296875 0.85584609375
vn 0.3338281898574587 0.2696291503120808 0.9032490580999671
vn -0.33001532113184145 -0.24964682013494127 -0.9103660544060066
vn 0 -1 0
vn 0 1 0
vn 0.6249609530361626 0.26725021484656225 0.7334856030247614
vn -0.6213441977576547 -0.2473031603603994 -0.7434867415015921
vn 0 -1 0
vn 0 1 0
vn 0.8382912118550605 0.2647410397756199 0.4766340587758052
vn -0.8387863262411069 -0.2449884308380673 -0.48622851383526355
vn 0 -1 0
vn 0 1 0
vn 0.950498882904925 0.2632664324715752 0.16505350384096437
vn -0.9549772754770571 -0.24378978693188094 -0.16907082276408614
vn 0 -1 0
vn 0 1 0
vn 0.9504375657617011 0.26349438176114043 -0.16504285615950293
vn -0.9548563988288106 -0.24427760918645855 0.16904942255394834
vn 0 -1 0
vn 0 1 0
vn 0.8381530564408213 0.2653192474777933 -0.4765555066272208
vn -0.8385164369906002 -0.2462196851203701 0.4860720641590247
vn 0 -1 0
vn 0 1 0
vn 0.6248421731492556 0.26790971246798323 -0.7333461969761883
vn -0.6211149390721952 -0.2486996938584785 0.743212415622911
vn 0 -1 0
vn 0 1 0
vn 0.3337862528945002 0.2700608210928784 -0.903135587987368
vn -0.32993535977215194 -0.25055512384229905 0.9101454764423053
vn 0 -1 0
vn 0 1 0
vn 0 0.2707455769182841 -0.9626509401538991
vn 0 -0.2509279662031879 0.9680057622644257
vn 0 -1 0
vn 0 1 0
vn -0.3338281898574587 0.2696291503120808 -0.9032490580999671
vn 0.33001532113184145 -0.24964682013494127 0.9103660544060066
vn 0 -1 0
vn 0 1 0
vn -0.6249609530361626 0.26725021484656225 -0.7334856030247614
vn 0.6213441977576547 -0.2473031603603994 0.7434867415015921
vn 0 -1 0
vn 0 1 0
vn -0.8382912118550605 0.2647410397756199 -0.4766340587758052
vn 0.8387863262411069 -0.2449884308380673 0.48622851383526355
vn 0 -1 0
vn 0 1 0
vn -0.950498882904925 0.2632664324715752 -0.16505350384096437
vn 0.9549772754770571 -0.24378978693188094 0.16907082276408614
vn 0 -1 0
vn 0 1 0
vn -0.9504375657617011 0.26349438176114043 0.16504285615950293
vn 0.9548563988288106 -0.24427760918645855 -0.16904942255394834
vn 0 -1 0
vn 0 1 0
vn -0.8381530564408213 0.2653192474777933 0.4765555066272208
vn 0.8385164369906002 -0.2462196851203701 -0.4860720641590247
vn 0 -1 0
vn 0 1 0
vn -0.6248421731492556 0.26790971246798323 0.7333461969761883
vn 0.6211149390721952 -0.2486996938584785 -0.743212415622911
vn 0 -1 0
vn 0 1 0
vn -0.3337862528945002 0.2700608210928784 0.903135587987368
vn 0.32993535977215194 -0.25055512384229905 -0.9101454764423053
vn 0 -1 0
vn 0 1 0
vn 0 0.2707455769182841 0.9626509401538991
vn 0 -0.2509279662031879 -0.9680057622644257
vn 0 -1 0
vn 0 1 0
usemtl m_65965ce5-25e8-86f8-462a-e1961b1f47be
f 1/1/1 5/2/1 6/3/1 2/4/1
f 4/5/2 8/6/2 7/7/2 3/8/2
f 3/9/3 7/10/3 5/11/3 1/12/3
f 2/13/4 6/14/4 8/15/4 4/16/4
f 5/17/5 9/18/5 10/19/5 6/20/5
f 8/21/6 12/22/6 11/23/6 7/24/6
f 7/25/7 11/26/7 9/27/7 5/28/7
f 6/29/8 10/30/8 12/31/8 8/32/8
f 9/33/9 13/34/9 14/35/9 10/36/9
f 12/37/10 16/38/10 15/39/10 11/40/10
f 11/41/11 15/42/11 13/43/11 9/44/11
f 10/45/12 14/46/12 16/47/12 12/48/12
f 13/49/13 17/50/13 18/51/13 14/52/13
f 16/53/14 20/54/14 19/55/14 15/56/14
f 15/57/15 19/58/15 17/59/15 13/60/15
f 14/61/16 18/62/16 20/63/16 16/64/16
f 17/65/17 21/66/17 22/67/17 18/68/17
f 20/69/18 24/70/18 23/71/18 19/72/18
f 19/73/19 23/74/19 21/75/19 17/76/19
f 18/77/20 22/78/20 24/79/20 20/80/20
f 21/81/21 25/82/21 26/83/21 22/84/21
f 24/85/22 28/86/22 27/87/22 23/88/22
f 23/89/23 27/90/23 25/91/23 21/92/23
f 22/93/24 26/94/24 28/95/24 24/96/24
f 25/97/25 29/98/25 30/99/25 26/100/25
f 28/101/26 32/102/26 31/103/26 27/104/26
f 27/105/27 31/106/27 29/107/27 25/108/27
f 26/109/28 30/110/28 32/111/28 28/112/28
f 29/113/29 33/114/29 34/115/29 30/116/29
f 32/117/30 36/118/30 35/119/30 31/120/30
f 31/121/31 35/122/31 33/123/31 29/124/31
f 30/125/32 34/126/32 36/127/32 32/128/32
f 33/129/33 37/130/33 38/131/33 34/132/33
f 36/133/34 40/134/34 39/135/34 35/136/34
f 35/137/35 39/138/35 37/139/35 33/140/35
f 34/141/36 38/142/36 40/143/36 36/144/36
f 37/145/37 41/146/37 42/147/37 38/148/37
f 40/149/38 44/150/38 43/151/38 39/152/38
f 39/153/39 43/154/39 41/155/39 37/156/39
f 38/157/40 42/158/40 44/159/40 40/160/40
f 41/161/41 45/162/41 46/163/41 42/164/41
f 44/165/42 48/166/42 47/167/42 43/168/42
f 43/169/43 47/170/43 45/171/43 41/172/43
f 42/173/44 46/174/44 48/175/44 44/176/44
f 45/177/45 49/178/45 50/179/45 46/180/45
f 48/181/46 52/182/46 51/183/46 47/184/46
f 47/185/47 51/186/47 49/187/47 45/188/47
f 46/189/48 50/190/48 52/191/48 48/192/48
f 49/193/49 53/194/49 54/195/49 50/196/49
f 52/197/50 56/198/50 55/199/50 51/200/50
f 51/201/51 55/202/51 53/203/51 49/204/51
f 50/205/52 54/206/52 56/207/52 52/208/52
f 53/209/53 57/210/53 58/211/53 54/212/53
f 56/213/54 60/214/54 59/215/54 55/216/54
f 55/217/55 59/218/55 57/219/55 53/220/55
f 54/221/56 58/222/56 60/223/56 56/224/56
f 57/225/57 61/226/57 62/227/57 58/228/57
f 60/229/58 64/230/58 63/231/58 59/232/58
f 59/233/59 63/234/59 61/235/59 57/236/59
f 58/237/60 62/238/60 64/239/60 60/240/60
f 61/241/61 65/242/61 66/243/61 62/244/61
f 64/245/62 68/246/62 67/247/62 63/248/62
f 63/249/63 67/250/63 65/251/63 61/252/63
f 62/253/64 66/254/64 68/255/64 64/256/64
f 65/257/65 69/258/65 70/259/65 66/260/65
f 68/261/66 72/262/66 71/263/66 67/264/66
f 67/265/67 71/266/67 69/267/67 65/268/67
f 66/269/68 70/270/68 72/271/68 68/272/68
f 69/273/69 1/274/69 2/275/69 70/276/69
f 72/277/70 4/278/70 3/279/70 71/280/70
f 71/281/71 3/282/71 1/283/71 69/284/71
f 70/285/72 2/286/72 4/287/72 72/288/72
o circle
v 0 2.000625 0
v 0.11220375 2.000625 0.425
v 0.30654625 2.000625 0.311121875
v 0.41875 2.000625 0.113878125
v 0.41875 2.000625 -0.113878125
v 0.30654625 2.000625 -0.311121875
v 0.11220375 2.000625 -0.425
v -0.11220375 2.000625 -0.425
v -0.30654625 2.000625 -0.311121875
v -0.41875 2.000625 -0.113878125
v -0.41875 2.000625 0.113878125
v -0.30654625 2.000625 0.311121875
v -0.11220375 2.000625 0.425
vt 0 0.9393390625
vt 0.03033046875 0.94746640625
vt 0 1
vt 0.05859375 0.9686
vt 0.05859375 1
vt 0 0.9843
vt 0.060660703125 0.969669453125
vt 0.052533828125 1
vt 0 0.969669453125
vt 0.0606609375 0.96966953125
vt 0.05253359375 1
vt 0 0.96966953125
vt 0.0314 1
vt 0 1
vt 0.0157 0.94140625
vt 0.030330546875 1
vt 0 0.991873125
vt 0.030330546875 0.939339296875
vt 0.03033046875 1
vt 0 0.99187265625
vt 0.03033046875 0.9393390625
vt 0 1
vt 0 0.9686
vt 0.05859375 0.9843
vt 0 1
vt 0.008126875 0.969669453125
vt 0.060660703125 1
vt 0 1
vt 0.00812734375 0.96966953125
vt 0.0606609375 1
vt 0 0.94140625
vt 0.0314 0.94140625
vt 0.0157 1
vt 0 0.939339296875
vt 0.030330546875 0.947466171875
vt 0 1
vn 0 1 0
vn 0 1 0
vn 0 1 0
vn 0 1 0
vn 0 1 0
vn 0 1 0
vn 0 1 0
vn 0 1 0
vn 0 1 0
vn 0 1 0
vn 0 1 0
vn 0 1 0
usemtl m_65965ce5-25e8-86f8-462a-e1961b1f47be
f 75/289/73 76/290/73 73/291/73
f 76/292/74 77/293/74 73/294/74
f 77/295/75 78/296/75 73/297/75
f 78/298/76 79/299/76 73/300/76
f 79/301/77 80/302/77 73/303/77
f 80/304/78 81/305/78 73/306/78
f 81/307/79 82/308/79 73/309/79
f 82/310/80 83/311/80 73/312/80
f 83/313/81 84/314/81 73/315/81
f 84/316/82 85/317/82 73/318/82
f 85/319/83 74/320/83 73/321/83
f 74/322/84 75/323/84 73/324/84