# Made in Blockbench 4.10.4
mtllib small_observatory.mtl

o sphere
v 0.5 0.0625 0.5
v 0.5 1.0625 0.5
v 0.5669872981077806 0.9955127018922194 0.75
v 0.6160254037844386 0.8125 0.9330127018922193
v 0.6339745962155613 0.5625 1
v 0.6160254037844386 0.3125000000000001 0.9330127018922194
v 0.5669872981077806 0.12948729810778065 0.75
v 0.6830127018922192 0.9955127018922194 0.6830127018922193
v 0.8169872981077806 0.8125 0.8169872981077806
v 0.8660254037844386 0.5625 0.8660254037844386
v 0.8169872981077806 0.3125000000000001 0.8169872981077807
v 0.6830127018922192 0.12948729810778065 0.6830127018922193
v 0.75 0.9955127018922194 0.5669872981077806
v 0.9330127018922193 0.8125 0.6160254037844386
v 1 0.5625 0.6339745962155613
v 0.9330127018922194 0.3125000000000001 0.6160254037844386
v 0.75 0.12948729810778065 0.5669872981077806
v 0.75 0.9955127018922194 0.4330127018922193
v 0.9330127018922193 0.8125 0.3839745962155613
v 1 0.5625 0.3660254037844386
v 0.9330127018922194 0.3125000000000001 0.3839745962155613
v 0.75 0.12948729810778065 0.4330127018922193
v 0.6830127018922193 0.9955127018922194 0.31698729810778076
v 0.8169872981077806 0.8125 0.18301270189221935
v 0.8660254037844386 0.5625 0.1339745962155614
v 0.8169872981077807 0.3125000000000001 0.18301270189221935
v 0.6830127018922193 0.12948729810778065 0.31698729810778076
v 0.5669872981077807 0.9955127018922194 0.2500000000000001
v 0.6160254037844387 0.8125 0.06698729810778076
v 0.6339745962155615 0.5625 1.1102230246251565e-16
v 0.6160254037844388 0.3125000000000001 0.0669872981077807
v 0.5669872981077807 0.12948729810778065 0.2500000000000001
v 0.43301270189221946 0.9955127018922194 0.25
v 0.3839745962155615 0.8125 0.06698729810778065
v 0.3660254037844389 0.5625 0
v 0.3839745962155615 0.3125000000000001 0.06698729810778059
v 0.43301270189221946 0.12948729810778065 0.25
v 0.31698729810778076 0.9955127018922194 0.3169872981077807
v 0.18301270189221935 0.8125 0.1830127018922193
v 0.1339745962155614 0.5625 0.1339745962155613
v 0.18301270189221935 0.3125000000000001 0.18301270189221924
v 0.31698729810778076 0.12948729810778065 0.3169872981077807
v 0.25000000000000006 0.9955127018922194 0.4330127018922194
v 0.0669872981077807 0.8125 0.3839745962155614
v 5.551115123125783e-17 0.5625 0.3660254037844387
v 0.06698729810778065 0.3125000000000001 0.3839745962155614
v 0.25000000000000006 0.12948729810778065 0.4330127018922194
v 0.25 0.9955127018922194 0.5669872981077806
v 0.06698729810778065 0.8125 0.6160254037844384
v 0 0.5625 0.6339745962155611
v 0.06698729810778059 0.3125000000000001 0.6160254037844385
v 0.25 0.12948729810778065 0.5669872981077806
v 0.3169872981077807 0.9955127018922194 0.6830127018922192
v 0.1830127018922193 0.8125 0.8169872981077806
v 0.1339745962155613 0.5625 0.8660254037844386
v 0.18301270189221924 0.3125000000000001 0.8169872981077806
v 0.3169872981077807 0.12948729810778065 0.6830127018922192
v 0.43301270189221935 0.9955127018922194 0.75
v 0.3839745962155614 0.8125 0.9330127018922193
v 0.3660254037844387 0.5625 1
v 0.3839745962155614 0.3125000000000001 0.9330127018922194
v 0.43301270189221935 0.12948729810778065 0.75
vt 0.0625000000000033 0.6786749999999991
vt 0.1964750000000033 0.6786749999999991
vt 0.1294875000000033 0.9374999999999992
vt 0.11153750000000048 0.9374999999999992
vt 0.06250000000000049 0.6786749999999991
vt 0.2945500000000005 0.6786749999999991
vt 0.2455125000000005 0.9374999999999992
vt 0.08044999999999951 0.9374999999999992
vt 0.0624999999999995 0.6786749999999991
vt 0.3304499999999995 0.6786749999999991
vt 0.3124999999999995 0.9374999999999992
vt 0.0624999999999995 0.9374999999999992
vt 0.08044999999999951 0.6786749999999991
vt 0.3124999999999995 0.6786749999999991
vt 0.3304499999999995 0.9374999999999992
vt 0.06250000000000049 0.9374999999999992
vt 0.11153750000000048 0.6786749999999991
vt 0.2455125000000005 0.6786749999999991
vt 0.2945500000000005 0.9374999999999992
vt 0.1964750000000033 0.9374999999999992
vt 0.0625000000000033 0.9374999999999992
vt 0.1294875000000033 0.6786749999999991
vt 0.0625000000000033 0.6786749999999991
vt 0.1964750000000033 0.6786749999999991
vt 0.1294875000000033 0.9374999999999992
vt 0.11153750000000048 0.9374999999999992
vt 0.06250000000000049 0.6786749999999991
vt 0.2945500000000005 0.6786749999999991
vt 0.2455125000000005 0.9374999999999992
vt 0.08044999999999951 0.9374999999999992
vt 0.0624999999999995 0.6786749999999991
vt 0.3304499999999995 0.6786749999999991
vt 0.3124999999999995 0.9374999999999992
vt 0.0624999999999995 0.9374999999999992
vt 0.08044999999999951 0.6786749999999991
vt 0.3124999999999995 0.6786749999999991
vt 0.3304499999999995 0.9374999999999992
vt 0.06250000000000049 0.9374999999999992
vt 0.11153750000000048 0.6786749999999991
vt 0.2455125000000005 0.6786749999999991
vt 0.2945500000000005 0.9374999999999992
vt 0.1964750000000033 0.9374999999999992
vt 0.0625000000000033 0.9374999999999992
vt 0.1294875000000033 0.6786749999999991
vt 0.0625000000000033 0.6786749999999991
vt 0.1964750000000033 0.6786749999999991
vt 0.1294875000000033 0.9374999999999992
vt 0.11153750000000048 0.9374999999999992
vt 0.06250000000000049 0.6786749999999991
vt 0.2945500000000005 0.6786749999999991
vt 0.2455125000000005 0.9374999999999992
vt 0.08044999999999951 0.9374999999999992
vt 0.0624999999999995 0.6786749999999991
vt 0.3304499999999995 0.6786749999999991
vt 0.3124999999999995 0.9374999999999992
vt 0.0624999999999995 0.9374999999999992
vt 0.08044999999999951 0.6786749999999991
vt 0.3124999999999995 0.6786749999999991
vt 0.3304499999999995 0.9374999999999992
vt 0.06250000000000049 0.9374999999999992
vt 0.11153750000000048 0.6786749999999991
vt 0.2455125000000005 0.6786749999999991
vt 0.2945500000000005 0.9374999999999992
vt 0.1964750000000033 0.9374999999999992
vt 0.0625000000000033 0.9374999999999992
vt 0.1294875000000033 0.6786749999999991
vt 0.0625000000000033 0.6786749999999991
vt 0.1964750000000033 0.6786749999999991
vt 0.1294875000000033 0.9374999999999992
vt 0.11153750000000048 0.9374999999999992
vt 0.06250000000000049 0.6786749999999991
vt 0.2945500000000005 0.6786749999999991
vt 0.2455125000000005 0.9374999999999992
vt 0.08044999999999951 0.9374999999999992
vt 0.0624999999999995 0.6786749999999991
vt 0.3304499999999995 0.6786749999999991
vt 0.3124999999999995 0.9374999999999992
vt 0.0624999999999995 0.9374999999999992
vt 0.08044999999999951 0.6786749999999991
vt 0.3124999999999995 0.6786749999999991
vt 0.3304499999999995 0.9374999999999992
vt 0.06250000000000049 0.9374999999999992
vt 0.11153750000000048 0.6786749999999991
vt 0.2455125000000005 0.6786749999999991
vt 0.2945500000000005 0.9374999999999992
vt 0.1964750000000033 0.9374999999999992
vt 0.0625000000000033 0.9374999999999992
vt 0.1294875000000033 0.6786749999999991
vt 0.0625000000000033 0.6786749999999991
vt 0.1964750000000033 0.6786749999999991
vt 0.1294875000000033 0.9374999999999992
vt 0.11153750000000048 0.9374999999999992
vt 0.06250000000000049 0.6786749999999991
vt 0.2945500000000005 0.6786749999999991
vt 0.2455125000000005 0.9374999999999992
vt 0.08044999999999951 0.9374999999999992
vt 0.0624999999999995 0.6786749999999991
vt 0.3304499999999995 0.6786749999999991
vt 0.3124999999999995 0.9374999999999992
vt 0.0624999999999995 0.9374999999999992
vt 0.08044999999999951 0.6786749999999991
vt 0.3124999999999995 0.6786749999999991
vt 0.3304499999999995 0.9374999999999992
vt 0.06250000000000049 0.9374999999999992
vt 0.11153750000000048 0.6786749999999991
vt 0.2455125000000005 0.6786749999999991
vt 0.2945500000000005 0.9374999999999992
vt 0.1964750000000033 0.9374999999999992
vt 0.0625000000000033 0.9374999999999992
vt 0.1294875000000033 0.6786749999999991
vt 0.0625000000000033 0.6786749999999991
vt 0.1964750000000033 0.6786749999999991
vt 0.1294875000000033 0.9374999999999992
vt 0.11153750000000048 0.9374999999999992
vt 0.06250000000000049 0.6786749999999991
vt 0.2945500000000005 0.6786749999999991
vt 0.2455125000000005 0.9374999999999992
vt 0.08044999999999951 0.9374999999999992
vt 0.0624999999999995 0.6786749999999991
vt 0.3304499999999995 0.6786749999999991
vt 0.3124999999999995 0.9374999999999992
vt 0.0624999999999995 0.9374999999999992
vt 0.08044999999999951 0.6786749999999991
vt 0.3124999999999995 0.6786749999999991
vt 0.3304499999999995 0.9374999999999992
vt 0.06250000000000049 0.9374999999999992
vt 0.11153750000000048 0.6786749999999991
vt 0.2455125000000005 0.6786749999999991
vt 0.2945500000000005 0.9374999999999992
vt 0.1964750000000033 0.9374999999999992
vt 0.0625000000000033 0.9374999999999992
vt 0.1294875000000033 0.6786749999999991
vt 0.0625000000000033 0.6786749999999991
vt 0.1964750000000033 0.6786749999999991
vt 0.1294875000000033 0.9374999999999992
vt 0.11153750000000048 0.9374999999999992
vt 0.06250000000000049 0.6786749999999991
vt 0.2945500000000005 0.6786749999999991
vt 0.2455125000000005 0.9374999999999992
vt 0.08044999999999951 0.9374999999999992
vt 0.0624999999999995 0.6786749999999991
vt 0.3304499999999995 0.6786749999999991
vt 0.3124999999999995 0.9374999999999992
vt 0.0624999999999995 0.9374999999999992
vt 0.08044999999999951 0.6786749999999991
vt 0.3124999999999995 0.6786749999999991
vt 0.3304499999999995 0.9374999999999992
vt 0.06250000000000049 0.9374999999999992
vt 0.11153750000000048 0.6786749999999991
vt 0.2455125000000005 0.6786749999999991
vt 0.2945500000000005 0.9374999999999992
vt 0.1964750000000033 0.9374999999999992
vt 0.0625000000000033 0.9374999999999992
vt 0.1294875000000033 0.6786749999999991
vt 0.0625000000000033 0.6786749999999991
vt 0.1964750000000033 0.6786749999999991
vt 0.1294875000000033 0.9374999999999992
vt 0.11153750000000048 0.9374999999999992
vt 0.06250000000000049 0.6786749999999991
vt 0.2945500000000005 0.6786749999999991
vt 0.2455125000000005 0.9374999999999992
vt 0.08044999999999951 0.9374999999999992
vt 0.0624999999999995 0.6786749999999991
vt 0.3304499999999995 0.6786749999999991
vt 0.3124999999999995 0.9374999999999992
vt 0.0624999999999995 0.9374999999999992
vt 0.08044999999999951 0.6786749999999991
vt 0.3124999999999995 0.6786749999999991
vt 0.3304499999999995 0.9374999999999992
vt 0.06250000000000049 0.9374999999999992
vt 0.11153750000000048 0.6786749999999991
vt 0.2455125000000005 0.6786749999999991
vt 0.2945500000000005 0.9374999999999992
vt 0.1964750000000033 0.9374999999999992
vt 0.0625000000000033 0.9374999999999992
vt 0.1294875000000033 0.6786749999999991
vt 0.0625000000000033 0.6786749999999991
vt 0.1964750000000033 0.6786749999999991
vt 0.1294875000000033 0.9374999999999992
vt 0.11153750000000048 0.9374999999999992
vt 0.06250000000000049 0.6786749999999991
vt 0.2945500000000005 0.6786749999999991
vt 0.2455125000000005 0.9374999999999992
vt 0.08044999999999951 0.9374999999999992
vt 0.0624999999999995 0.6786749999999991
vt 0.3304499999999995 0.6786749999999991
vt 0.3124999999999995 0.9374999999999992
vt 0.0624999999999995 0.9374999999999992
vt 0.08044999999999951 0.6786749999999991
vt 0.3124999999999995 0.6786749999999991
vt 0.3304499999999995 0.9374999999999992
vt 0.06250000000000049 0.9374999999999992
vt 0.11153750000000048 0.6786749999999991
vt 0.2455125000000005 0.6786749999999991
vt 0.2945500000000005 0.9374999999999992
vt 0.1964750000000033 0.9374999999999992
vt 0.0625000000000033 0.9374999999999992
vt 0.1294875000000033 0.6786749999999991
vt 0.0625000000000033 0.6786749999999991
vt 0.1964750000000033 0.6786749999999991
vt 0.1294875000000033 0.9374999999999992
vt 0.11153750000000048 0.9374999999999992
vt 0.06250000000000049 0.6786749999999991
vt 0.2945500000000005 0.6786749999999991
vt 0.2455125000000005 0.9374999999999992
vt 0.08044999999999951 0.9374999999999992
vt 0.0624999999999995 0.6786749999999991
vt 0.3304499999999995 0.6786749999999991
vt 0.3124999999999995 0.9374999999999992
vt 0.0624999999999995 0.9374999999999992
vt 0.08044999999999951 0.6786749999999991
vt 0.3124999999999995 0.6786749999999991
vt 0.3304499999999995 0.9374999999999992
vt 0.06250000000000049 0.9374999999999992
vt 0.11153750000000048 0.6786749999999991
vt 0.2455125000000005 0.6786749999999991
vt 0.2945500000000005 0.9374999999999992
vt 0.1964750000000033 0.9374999999999992
vt 0.0625000000000033 0.9374999999999992
vt 0.1294875000000033 0.6786749999999991
vt 0.0625000000000033 0.6786749999999991
vt 0.1964750000000033 0.6786749999999991
vt 0.1294875000000033 0.9374999999999992
vt 0.11153750000000048 0.9374999999999992
vt 0.06250000000000049 0.6786749999999991
vt 0.2945500000000005 0.6786749999999991
vt 0.2455125000000005 0.9374999999999992
vt 0.08044999999999951 0.9374999999999992
vt 0.0624999999999995 0.6786749999999991
vt 0.3304499999999995 0.6786749999999991
vt 0.3124999999999995 0.9374999999999992
vt 0.0624999999999995 0.9374999999999992
vt 0.08044999999999951 0.6786749999999991
vt 0.3124999999999995 0.6786749999999991
vt 0.3304499999999995 0.9374999999999992
vt 0.06250000000000049 0.9374999999999992
vt 0.11153750000000048 0.6786749999999991
vt 0.2455125000000005 0.6786749999999991
vt 0.2945500000000005 0.9374999999999992
vt 0.1964750000000033 0.9374999999999992
vt 0.0625000000000033 0.9374999999999992
vt 0.1294875000000033 0.6786749999999991
vt 0.0625000000000033 0.6786749999999991
vt 0.1964750000000033 0.6786749999999991
vt 0.1294875000000033 0.9374999999999992
vt 0.11153750000000048 0.9374999999999992
vt 0.06250000000000049 0.6786749999999991
vt 0.2945500000000005 0.6786749999999991
vt 0.2455125000000005 0.9374999999999992
vt 0.08044999999999951 0.9374999999999992
vt 0.0624999999999995 0.6786749999999991
vt 0.3304499999999995 0.6786749999999991
vt 0.3124999999999995 0.9374999999999992
vt 0.0624999999999995 0.9374999999999992
vt 0.08044999999999951 0.6786749999999991
vt 0.3124999999999995 0.6786749999999991
vt 0.3304499999999995 0.9374999999999992
vt 0.06250000000000049 0.9374999999999992
vt 0.11153750000000048 0.6786749999999991
vt 0.2455125000000005 0.6786749999999991
vt 0.2945500000000005 0.9374999999999992
vt 0.1964750000000033 0.9374999999999992
vt 0.0625000000000033 0.9374999999999992
vt 0.1294875000000033 0.6786749999999991
vn 0.12940952255126043 0.9659258262890683 0.22414386804201333
vn 0.35355339059327373 0.7071067811865477 0.6123724356957945
vn 0.48296291314453405 0.2588190451025207 0.836516303737808
vn 0.48296291314453427 -0.2588190451025205 0.8365163037378079
vn 0.3535533905932741 -0.7071067811865475 0.6123724356957946
vn 0.12940952255126043 -0.9659258262890683 0.22414386804201333
vn 0.22414386804201336 0.9659258262890683 0.12940952255126045
vn 0.6123724356957944 0.7071067811865478 0.3535533905932736
vn 0.8365163037378079 0.2588190451025208 0.48296291314453405
vn 0.8365163037378078 -0.25881904510252074 0.48296291314453427
vn 0.6123724356957945 -0.7071067811865475 0.353553390593274
vn 0.22414386804201336 -0.9659258262890683 0.12940952255126045
vn 0.2588190451025207 0.9659258262890683 0
vn 0.7071067811865475 0.7071067811865476 0
vn 0.9659258262890683 0.25881904510252063 0
vn 0.9659258262890683 -0.2588190451025205 0
vn 0.7071067811865476 -0.7071067811865475 0
vn 0.2588190451025207 -0.9659258262890683 0
vn 0.22414386804201333 0.9659258262890683 -0.12940952255126045
vn 0.6123724356957944 0.7071067811865477 -0.3535533905932738
vn 0.836516303737808 0.25881904510252063 -0.48296291314453416
vn 0.8365163037378078 -0.2588190451025205 -0.4829629131445344
vn 0.6123724356957945 -0.7071067811865474 -0.3535533905932741
vn 0.22414386804201333 -0.9659258262890683 -0.12940952255126045
vn 0.1294095225512604 0.9659258262890683 -0.22414386804201333
vn 0.35355339059327373 0.7071067811865477 -0.6123724356957944
vn 0.48296291314453427 0.2588190451025208 -0.836516303737808
vn 0.4829629131445343 -0.2588190451025208 -0.8365163037378078
vn 0.3535533905932739 -0.7071067811865475 -0.6123724356957947
vn 0.1294095225512604 -0.9659258262890683 -0.22414386804201333
vn 1.608589638639305e-16 0.9659258262890683 -0.2588190451025207
vn 3.466028960407396e-16 0.7071067811865477 -0.7071067811865475
vn 4.0022255066204975e-16 0.2588190451025207 -0.9659258262890683
vn 4.621371947209864e-16 -0.25881904510252063 -0.9659258262890684
vn 4.0022255066204975e-16 -0.7071067811865476 -0.7071067811865476
vn 1.6085896386393055e-16 -0.9659258262890683 -0.25881904510252074
vn -0.12940952255126034 0.9659258262890683 -0.2241438680420134
vn -0.3535533905932735 0.7071067811865477 -0.6123724356957946
vn -0.48296291314453377 0.25881904510252063 -0.8365163037378082
vn -0.482962913144534 -0.25881904510252046 -0.836516303737808
vn -0.3535533905932737 -0.7071067811865474 -0.6123724356957947
vn -0.12940952255126034 -0.9659258262890683 -0.2241438680420134
vn -0.22414386804201336 0.9659258262890683 -0.1294095225512604
vn -0.6123724356957945 0.7071067811865477 -0.3535533905932735
vn -0.836516303737808 0.25881904510252074 -0.4829629131445339
vn -0.8365163037378078 -0.25881904510252074 -0.48296291314453416
vn -0.6123724356957946 -0.7071067811865476 -0.3535533905932739
vn -0.22414386804201336 -0.9659258262890683 -0.1294095225512604
vn -0.2588190451025207 0.9659258262890683 -5.361965462131021e-17
vn -0.7071067811865474 0.7071067811865477 -2.310685973604933e-16
vn -0.9659258262890683 0.2588190451025207 -2.0011127533102507e-16
vn -0.9659258262890684 -0.2588190451025206 -2.3106859736049333e-16
vn -0.7071067811865477 -0.7071067811865474 -2.00111275331025e-16
vn -0.2588190451025207 -0.9659258262890683 -5.361965462131021e-17
vn -0.22414386804201336 0.9659258262890683 0.12940952255126034
vn -0.6123724356957946 0.7071067811865477 0.3535533905932736
vn -0.8365163037378082 0.25881904510252063 0.48296291314453377
vn -0.836516303737808 -0.2588190451025205 0.48296291314453405
vn -0.6123724356957948 -0.7071067811865475 0.3535533905932738
vn -0.22414386804201336 -0.9659258262890683 0.12940952255126034
vn -0.12940952255126045 0.9659258262890683 0.22414386804201333
vn -0.3535533905932738 0.7071067811865477 0.6123724356957944
vn -0.4829629131445341 0.2588190451025208 0.8365163037378079
vn -0.48296291314453443 -0.25881904510252085 0.8365163037378079
vn -0.353553390593274 -0.7071067811865475 0.6123724356957946
vn -0.12940952255126045 -0.9659258262890683 0.22414386804201333
vn 0 0.9659258262890683 0.2588190451025207
vn 0 0.7071067811865477 0.7071067811865475
vn 0 0.25881904510252063 0.9659258262890683
vn 0 -0.2588190451025205 0.9659258262890683
vn 0 -0.7071067811865474 0.7071067811865477
vn 0 -0.9659258262890683 0.2588190451025207
usemtl texture0
f 3/1/1 8/2/1 2/3/1
f 3/4/2 4/5/2 9/6/2 8/7/2
f 4/8/3 5/9/3 10/10/3 9/11/3
usemtl texture0
f 5/12/4 6/13/4 11/14/4 10/15/4
f 6/16/5 7/17/5 12/18/5 11/19/5
f 12/20/6 7/21/6 1/22/6
usemtl texture0
f 8/23/7 13/24/7 2/25/7
f 8/26/8 9/27/8 14/28/8 13/29/8
f 9/30/9 10/31/9 15/32/9 14/33/9
usemtl texture0
f 10/34/10 11/35/10 16/36/10 15/37/10
f 11/38/11 12/39/11 17/40/11 16/41/11
f 17/42/12 12/43/12 1/44/12
usemtl texture0
f 13/45/13 18/46/13 2/47/13
f 13/48/14 14/49/14 19/50/14 18/51/14
f 14/52/15 15/53/15 20/54/15 19/55/15
usemtl texture0
f 15/56/16 16/57/16 21/58/16 20/59/16
f 16/60/17 17/61/17 22/62/17 21/63/17
f 22/64/18 17/65/18 1/66/18
usemtl texture0
f 18/67/19 23/68/19 2/69/19
f 18/70/20 19/71/20 24/72/20 23/73/20
f 19/74/21 20/75/21 25/76/21 24/77/21
usemtl texture0
f 20/78/22 21/79/22 26/80/22 25/81/22
f 21/82/23 22/83/23 27/84/23 26/85/23
f 27/86/24 22/87/24 1/88/24
usemtl texture0
f 23/89/25 28/90/25 2/91/25
f 23/92/26 24/93/26 29/94/26 28/95/26
f 24/96/27 25/97/27 30/98/27 29/99/27
usemtl texture0
f 25/100/28 26/101/28 31/102/28 30/103/28
f 26/104/29 27/105/29 32/106/29 31/107/29
f 32/108/30 27/109/30 1/110/30
usemtl texture0
f 28/111/31 33/112/31 2/113/31
f 28/114/32 29/115/32 34/116/32 33/117/32
f 29/118/33 30/119/33 35/120/33 34/121/33
usemtl texture0
f 30/122/34 31/123/34 36/124/34 35/125/34
f 31/126/35 32/127/35 37/128/35 36/129/35
f 37/130/36 32/131/36 1/132/36
usemtl texture0
f 33/133/37 38/134/37 2/135/37
f 33/136/38 34/137/38 39/138/38 38/139/38
f 34/140/39 35/141/39 40/142/39 39/143/39
usemtl texture0
f 35/144/40 36/145/40 41/146/40 40/147/40
f 36/148/41 37/149/41 42/150/41 41/151/41
f 42/152/42 37/153/42 1/154/42
usemtl texture0
f 38/155/43 43/156/43 2/157/43
f 38/158/44 39/159/44 44/160/44 43/161/44
f 39/162/45 40/163/45 45/164/45 44/165/45
usemtl texture0
f 40/166/46 41/167/46 46/168/46 45/169/46
f 41/170/47 42/171/47 47/172/47 46/173/47
f 47/174/48 42/175/48 1/176/48
usemtl texture0
f 43/177/49 48/178/49 2/179/49
f 43/180/50 44/181/50 49/182/50 48/183/50
f 44/184/51 45/185/51 50/186/51 49/187/51
usemtl texture0
f 45/188/52 46/189/52 51/190/52 50/191/52
f 46/192/53 47/193/53 52/194/53 51/195/53
f 52/196/54 47/197/54 1/198/54
usemtl texture0
f 48/199/55 53/200/55 2/201/55
f 48/202/56 49/203/56 54/204/56 53/205/56
f 49/206/57 50/207/57 55/208/57 54/209/57
usemtl texture0
f 50/210/58 51/211/58 56/212/58 55/213/58
f 51/214/59 52/215/59 57/216/59 56/217/59
f 57/218/60 52/219/60 1/220/60
usemtl texture0
f 53/221/61 58/222/61 2/223/61
f 53/224/62 54/225/62 59/226/62 58/227/62
f 54/228/63 55/229/63 60/230/63 59/231/63
usemtl texture0
f 55/232/64 56/233/64 61/234/64 60/235/64
f 56/236/65 57/237/65 62/238/65 61/239/65
f 62/240/66 57/241/66 1/242/66
usemtl texture0
f 58/243/67 3/244/67 2/245/67
f 58/246/68 59/247/68 4/248/68 3/249/68
f 59/250/69 60/251/69 5/252/69 4/253/69
usemtl texture0
f 60/254/70 61/255/70 6/256/70 5/257/70
f 61/258/71 62/259/71 7/260/71 6/261/71
f 7/262/72 62/263/72 1/264/72
o tube
v 0.1339745962155613 0.6250625 0.8660254037844386
v 0.6339745962155613 0.00006249999999999312 1
v 0.6339745962155613 0.6250625 1
v 0.6052070591881391 0.00006249999999999312 0.8926380902050415
v 0.6052070591881391 0.6250625 0.8926380902050415
v 0.8660254037844386 0.00006249999999999312 0.8660254037844386
v 0.8660254037844386 0.6250625 0.8660254037844386
v 0.7874310310169023 0.00006249999999999312 0.7874310310169024
v 0.7874310310169023 0.6250625 0.7874310310169024
v 1 0.00006249999999999312 0.6339745962155613
v 1 0.6250625 0.6339745962155613
v 0.8926380902050415 0.00006249999999999312 0.6052070591881391
v 0.8926380902050415 0.6250625 0.6052070591881391
v 1 0.00006249999999999312 0.3660254037844386
v 1 0.6250625 0.3660254037844386
v 0.8926380902050415 0.00006249999999999312 0.3947929408118608
v 0.8926380902050415 0.6250625 0.3947929408118608
v 0.8660254037844386 0.00006249999999999312 0.1339745962155614
v 0.8660254037844386 0.6250625 0.1339745962155614
v 0.7874310310169024 0.00006249999999999312 0.21256896898309774
v 0.7874310310169024 0.6250625 0.21256896898309774
v 0.6339745962155615 0.00006249999999999312 1.1102230246251565e-16
v 0.6339745962155615 0.6250625 1.1102230246251565e-16
v 0.6052070591881393 0.00006249999999999312 0.10736190979495858
v 0.6052070591881393 0.6250625 0.10736190979495858
v 0.3660254037844389 0.00006249999999999312 0
v 0.3660254037844389 0.6250625 0
v 0.394792940811861 0.00006249999999999312 0.10736190979495847
v 0.394792940811861 0.6250625 0.10736190979495847
v 0.1339745962155614 0.00006249999999999312 0.1339745962155613
v 0.1339745962155614 0.6250625 0.1339745962155613
v 0.21256896898309774 0.00006249999999999312 0.21256896898309763
v 0.21256896898309774 0.6250625 0.21256896898309763
v 5.551115123125783e-17 0.00006249999999999312 0.3660254037844387
v 5.551115123125783e-17 0.6250625 0.3660254037844387
v 0.10736190979495852 0.00006249999999999312 0.3947929408118609
v 0.10736190979495852 0.6250625 0.3947929408118609
v 0 0.00006249999999999312 0.6339745962155611
v 0 0.6250625 0.6339745962155611
v 0.10736190979495847 0.00006249999999999312 0.605207059188139
v 0.10736190979495847 0.6250625 0.605207059188139
v 0.1339745962155613 0.00006249999999999312 0.8660254037844386
v 0.21256896898309763 0.00006249999999999312 0.7874310310169021
v 0.21256896898309763 0.6250625 0.7874310310169021
v 0.3660254037844387 0.00006249999999999312 1
v 0.3660254037844387 0.6250625 1
v 0.3947929408118609 0.00006249999999999312 0.8926380902050415
v 0.3947929408118609 0.6250625 0.8926380902050415
vt 0.0624999999999995 0.375
vt 0.3304499999999995 0.375
vt 0.3304499999999995 1
vt 0.0624999999999995 1
vt 0.21041250000000195 1
vt 1.942890293094024e-15 1
vt 1.942890293094024e-15 0.375
vt 0.21041250000000195 0.375
vt 5.551115123125783e-17 0.9712338382135861
vt 0 0.7608192340054597
vt 0.1073608929841336 0.7320513050606363
vt 0.1073631935017324 0.999999999999999
vt 3.164135620181696e-15 0.8926370534788378
vt 0.2679486949492415 0.8926370534788377
vt 0.2391816877700864 0.9999981934508008
vt 0.02876708356971515 0.999999999999999
vt 0.0624999999999995 0.375
vt 0.3304499999999995 0.375
vt 0.3304499999999995 1
vt 0.0624999999999995 1
vt 0.21041250000000195 1
vt 1.942890293094024e-15 1
vt 1.942890293094024e-15 0.375
vt 0.21041250000000195 0.375
vt 0 0.9712320710551766
vt 5.551115123125783e-17 0.7608174668470502
vt 0.1073631935017324 0.7320513050606374
vt 0.10736089298413354 1
vt 0 0.8926370534788379
vt 0.2679486949492383 0.8926370534788377
vt 0.2391816113795264 0.9999999999999989
vt 0.028767007179155174 0.9999981934508009
vt 0.0624999999999995 0.375
vt 0.3304499999999995 0.375
vt 0.3304499999999995 1
vt 0.0624999999999995 1
vt 0.21041250000000195 1
vt 1.942890293094024e-15 1
vt 1.942890293094024e-15 0.375
vt 0.21041250000000195 0.375
vt 6.661338147750939e-16 0.97123125
vt 6.661338147750939e-16 0.76081875
vt 0.1073625000000007 0.73205
vt 0.1073625000000007 1
vt 0.1073625000000007 0.73205
vt 0.1073625000000007 1
vt 6.661338147750939e-16 0.97123125
vt 6.661338147750939e-16 0.76081875
vt 0.0624999999999995 0.375
vt 0.3304499999999995 0.375
vt 0.3304499999999995 1
vt 0.0624999999999995 1
vt 0.21041250000000195 1
vt 1.942890293094024e-15 1
vt 1.942890293094024e-15 0.375
vt 0.21041250000000195 0.375
vt 0.23918253315294977 1
vt 0.02876792894482333 1
vt 0 0.8926391070158664
vt 0.26794869493936263 0.8926368064982676
vt 0.10736294652116224 0.7320513050507615
vt 0.10736294652116218 1
vt 0.0000018065491992347305 0.9712329928208447
vt 1.1102230246251565e-15 0.7608183886204736
vt 0.0624999999999995 0.375
vt 0.3304499999999995 0.375
vt 0.3304499999999995 1
vt 0.0624999999999995 1
vt 0.21041250000000195 1
vt 1.942890293094024e-15 1
vt 1.942890293094024e-15 0.375
vt 0.21041250000000195 0.375
vt 0.2391807659945403 1
vt 0.02876616178641389 1
vt 1.0547118733938987e-15 0.8926368064982676
vt 0.2679486949393637 0.8926391070158665
vt 0.10736294652116218 0.7320513050507585
vt 0.10736294652116213 0.9999999999999969
vt 9.43689570931383e-16 0.9712329164302849
vt 0.0000018065491992347305 0.7608183122299137
vt 0.0624999999999995 0.375
vt 0.3304499999999995 0.375
vt 0.3304499999999995 1
vt 0.0624999999999995 1
vt 0.21041250000000195 1
vt 1.942890293094024e-15 1
vt 1.942890293094024e-15 0.375
vt 0.21041250000000195 0.375
vt 0.23918125 0.9999999999999993
vt 0.02876875000000001 0.9999999999999993
vt 0 0.8926374999999993
vt 0.26795 0.8926374999999993
vt 0.26795 1
vt 0 1
vt 0.02876875000000001 0.8926375
vt 0.23918125 0.8926375
vt 0.0624999999999995 0.375
vt 0.3304499999999995 0.375
vt 0.3304499999999995 1
vt 0.0624999999999995 1
vt 0.21041250000000195 1
vt 1.942890293094024e-15 1
vt 1.942890293094024e-15 0.375
vt 0.21041250000000195 0.375
vt 0.10736319350173584 0.7608174668470502
vt 0.10736319350173579 0.9712320710551767
vt 0.0000023005176021939633 1
vt 3.4416913763379853e-15 0.7320513050606373
vt 0.26794869494923834 0.9999999999999983
vt 0 0.9999999999999984
vt 0.02876700717915512 0.8926388600280354
vt 0.23918161137952637 0.8926370534788372
vt 0.0624999999999995 0.375
vt 0.3304499999999995 0.375
vt 0.3304499999999995 1
vt 0.0624999999999995 1
vt 0.21041250000000195 1
vt 1.942890293094024e-15 1
vt 1.942890293094024e-15 0.375
vt 0.21041250000000195 0.375
vt 0.10736319350173584 0.7608192340054597
vt 0.10736319350173579 0.9712338382135861
vt 3.4416913763379853e-15 0.9999999999999989
vt 0.0000023005176023049856 0.7320513050606363
vt 0.26794869494924145 0.9999999999999983
vt 3.1363800445660672e-15 0.9999999999999982
vt 0.02876708356971515 0.892637053478837
vt 0.23918168777008636 0.8926388600280354
vt 0.0624999999999995 0.375
vt 0.3304499999999995 0.375
vt 0.3304499999999995 1
vt 0.0624999999999995 1
vt 0.21041250000000195 1
vt 1.942890293094024e-15 1
vt 1.942890293094024e-15 0.375
vt 0.21041250000000195 0.375
vt 0.10736250000000003 0.76081875
vt 0.10736250000000003 0.97123125
vt 0 1
vt 0 0.73205
vt 0 1
vt 0 0.73205
vt 0.10736250000000003 0.76081875
vt 0.10736250000000003 0.97123125
vt 0.0624999999999995 0.375
vt 0.3304499999999995 0.375
vt 0.3304499999999995 1
vt 0.0624999999999995 1
vt 0.21041250000000195 1
vt 1.942890293094024e-15 1
vt 1.942890293094024e-15 0.375
vt 0.21041250000000195 0.375
vt 0.028766161786413863 0.8926368064982642
vt 0.2391807659945403 0.8926368064982642
vt 0.26794869493936363 0.9999976994823978
vt 9.992007221626409e-16 0.9999999999999966
vt 1.6653345369377348e-15 0.9999999999999969
vt 1.609823385706477e-15 0.7320513050507584
vt 0.10736113997196461 0.7608183122299136
vt 0.10736294652116285 0.9712329164302849
vt 0.0624999999999995 0.375
vt 0.3304499999999995 0.375
vt 0.3304499999999995 1
vt 0.0624999999999995 1
vt 0.21041250000000195 1
vt 1.942890293094024e-15 1
vt 1.942890293094024e-15 0.375
vt 0.21041250000000195 0.375
vt 0.028767928944823357 0.8926368064982642
vt 0.23918253315294977 0.8926368064982642
vt 0.2679486949393626 0.9999999999999966
vt 0 0.9999976994823977
vt 1.6653345369377348e-15 1
vt 1.7208456881689926e-15 0.7320513050507617
vt 0.1073629465211629 0.7608183886204737
vt 0.10736113997196461 0.971232992820845
vt 0.0624999999999995 0.375
vt 0.3304499999999995 0.375
vt 0.3304499999999995 1
vt 0.0624999999999995 1
vt 0.21041250000000195 1
vt 1.942890293094024e-15 1
vt 1.942890293094024e-15 0.375
vt 0.21041250000000195 0.375
vt 0.02876875000000001 0.8926375
vt 0.23918125 0.8926375
vt 0.26795 1
vt 0 1
vt 0 0.8926374999999993
vt 0.26795 0.8926374999999993
vt 0.23918125 0.9999999999999993
vt 0.02876875000000001 0.9999999999999993
vn 0.49999999999999983 0 0.8660254037844387
vn -0.5000000000000001 0 -0.8660254037844388
vn 0 -1 0
vn 0 1 0
vn 0.8660254037844388 0 0.5
vn -0.8660254037844386 0 -0.5000000000000001
vn 0 -1 0
vn 0 1 0
vn 1 0 0
vn -1 0 0
vn 0 -1 0
vn 0 1 0
vn 0.8660254037844387 0 -0.49999999999999994
vn -0.8660254037844386 0 0.5000000000000001
vn 0 -1 0
vn 0 1 0
vn 0.5000000000000001 0 -0.8660254037844386
vn -0.5000000000000001 0 0.8660254037844386
vn 0 -1 0
vn 0 1 0
vn 4.143408735633879e-16 0 -1
vn -5.276371344244937e-16 0 1
vn 0 -1 0
vn 0 1 0
vn -0.4999999999999996 0 -0.8660254037844389
vn 0.49999999999999967 0 0.8660254037844389
vn 0 -1 0
vn 0 1 0
vn -0.8660254037844388 0 -0.4999999999999998
vn 0.8660254037844387 0 0.4999999999999999
vn 0 -1 0
vn 0 1 0
vn -1 0 -2.0717043678169412e-16
vn 1 0 2.63818567212247e-16
vn 0 -1 0
vn 0 1 0
vn -0.8660254037844389 0 0.4999999999999996
vn 0.8660254037844389 0 -0.4999999999999998
vn 0 -1 0
vn 0 1 0
vn -0.4999999999999999 0 0.8660254037844386
vn 0.5000000000000002 0 -0.8660254037844386
vn 0 -1 0
vn 0 1 0
vn 0 0 1
vn 0 0 -1
vn 0 -1 0
vn 0 1 0
usemtl texture0
f 64/265/73 68/266/73 69/267/73 65/268/73
usemtl texture0
f 67/269/74 71/270/74 70/271/74 66/272/74
f 66/273/75 70/274/75 68/275/75 64/276/75
usemtl texture0
f 65/277/76 69/278/76 71/279/76 67/280/76
f 68/281/77 72/282/77 73/283/77 69/284/77
usemtl texture0
f 71/285/78 75/286/78 74/287/78 70/288/78
f 70/289/79 74/290/79 72/291/79 68/292/79
usemtl texture0
f 69/293/80 73/294/80 75/295/80 71/296/80
f 72/297/81 76/298/81 77/299/81 73/300/81
usemtl texture0
f 75/301/82 79/302/82 78/303/82 74/304/82
f 74/305/83 78/306/83 76/307/83 72/308/83
usemtl texture0
f 73/309/84 77/310/84 79/311/84 75/312/84
f 76/313/85 80/314/85 81/315/85 77/316/85
usemtl texture0
f 79/317/86 83/318/86 82/319/86 78/320/86
f 78/321/87 82/322/87 80/323/87 76/324/87
usemtl texture0
f 77/325/88 81/326/88 83/327/88 79/328/88
f 80/329/89 84/330/89 85/331/89 81/332/89
usemtl texture0
f 83/333/90 87/334/90 86/335/90 82/336/90
f 82/337/91 86/338/91 84/339/91 80/340/91
usemtl texture0
f 81/341/92 85/342/92 87/343/92 83/344/92
f 84/345/93 88/346/93 89/347/93 85/348/93
usemtl texture0
f 87/349/94 91/350/94 90/351/94 86/352/94
f 86/353/95 90/354/95 88/355/95 84/356/95
usemtl texture0
f 85/357/96 89/358/96 91/359/96 87/360/96
f 88/361/97 92/362/97 93/363/97 89/364/97
usemtl texture0
f 91/365/98 95/366/98 94/367/98 90/368/98
f 90/369/99 94/370/99 92/371/99 88/372/99
usemtl texture0
f 89/373/100 93/374/100 95/375/100 91/376/100
f 92/377/101 96/378/101 97/379/101 93/380/101
usemtl texture0
f 95/381/102 99/382/102 98/383/102 94/384/102
f 94/385/103 98/386/103 96/387/103 92/388/103
usemtl texture0
f 93/389/104 97/390/104 99/391/104 95/392/104
f 96/393/105 100/394/105 101/395/105 97/396/105
usemtl texture0
f 99/397/106 103/398/106 102/399/106 98/400/106
f 98/401/107 102/402/107 100/403/107 96/404/107
usemtl texture0
f 97/405/108 101/406/108 103/407/108 99/408/108
f 100/409/109 104/410/109 63/411/109 101/412/109
usemtl texture0
f 103/413/110 106/414/110 105/415/110 102/416/110
f 102/417/111 105/418/111 104/419/111 100/420/111
usemtl texture0
f 101/421/112 63/422/112 106/423/112 103/424/112
f 104/425/113 107/426/113 108/427/113 63/428/113
usemtl texture0
f 106/429/114 110/430/114 109/431/114 105/432/114
f 105/433/115 109/434/115 107/435/115 104/436/115
usemtl texture0
f 63/437/116 108/438/116 110/439/116 106/440/116
f 107/441/117 64/442/117 65/443/117 108/444/117
usemtl texture0
f 110/445/118 67/446/118 66/447/118 109/448/118
f 109/449/119 66/450/119 64/451/119 107/452/119
usemtl texture0
f 108/453/120 65/454/120 67/455/120 110/456/120
o circle
v 0.5 -6.25e-7 0.5
v 0.6339745962155613 -6.25e-7 1
v 0.8660254037844386 -6.25e-7 0.8660254037844386
v 1 -6.25e-7 0.6339745962155613
v 1 -6.25e-7 0.3660254037844386
v 0.8660254037844386 -6.25e-7 0.1339745962155614
v 0.6339745962155615 -6.25e-7 1.1102230246251565e-16
v 0.3660254037844389 -6.25e-7 0
v 0.1339745962155614 -6.25e-7 0.1339745962155613
v 5.551115123125783e-17 -6.25e-7 0.3660254037844387
v 0 -6.25e-7 0.6339745962155611
v 0.1339745962155613 -6.25e-7 0.8660254037844386
v 0.3660254037844387 -6.25e-7 1
vt 0.06250000000000006 0.41986248083238786
vt 0.32131875958380607 0.4892119783972586
vt 0.0625 0.9375
vt 0.5625 0.6695500000000005
vt 0.5625 0.9375000000000004
vt 0.0625 0.8035250000000005
vt 0.5801381947122913 0.6786815781880903
vt 0.5107874365636335 0.9374999999999976
vt 0.0625 0.6786815781880904
vt 0.5801375191676121 0.6786812404161964
vt 0.5107880216027414 0.9375000000000024
vt 0.0625 0.6786812404161964
vt 0.3304499999999995 0.9375
vt 0.0624999999999995 0.9375
vt 0.1964749999999995 0.4375
vt 0.3213184218119097 0.9375000000000008
vt 0.06250000000000244 0.8681492418513429
vt 0.3213184218119096 0.41986180528770944
vt 0.32131875958380357 0.9374999999999978
vt 0.06249999999999756 0.868150502435127
vt 0.3213187595838036 0.41986248083238564
vt 0.0625 0.9375000000000004
vt 0.0625 0.6695500000000005
vt 0.5625 0.8035250000000005
vt 0.06249999999999922 0.9375000000000001
vt 0.1318507581486571 0.6786815781880928
vt 0.5801381947122906 0.9375
vt 0.06250000000000222 0.9375
vt 0.1318494975648729 0.6786812404161939
vt 0.5801375191676144 0.9375
vt 0.0624999999999995 0.4375
vt 0.3304499999999995 0.4375
vt 0.1964749999999995 0.9375
vt 0.06249999999999992 0.41986180528770867
vt 0.3213184218119072 0.48921256343636654
vt 0.0625 0.9375
vn 0 1 0
vn 0 1 0
vn 0 1 0
vn 0 1 0
vn 0 1 0
vn 0 1 0
vn 0 1 0
vn 0 1 0
vn 0 1 0
vn 0 1 0
vn 0 1 0
vn 0 1 0
usemtl texture0
f 113/457/121 114/458/121 111/459/121
f 114/460/122 115/461/122 111/462/122
f 115/463/123 116/464/123 111/465/123
f 116/466/124 117/467/124 111/468/124
f 117/469/125 118/470/125 111/471/125
f 118/472/126 119/473/126 111/474/126
f 119/475/127 120/476/127 111/477/127
f 120/478/128 121/479/128 111/480/128
f 121/481/129 122/482/129 111/483/129
f 122/484/130 123/485/130 111/486/130
f 123/487/131 112/488/131 111/489/131
f 112/490/132 113/491/132 111/492/132
o cylinder
v 0.5 0.7077756120240212 0.17107983355063272
v 0.5 0.9611219398798938 -0.10539916775316377
v 0.5334936490538903 0.7999352791252867 0.25552860950259026
v 0.5334936490538903 1.0532816069811592 -0.020950391801206225
v 0.5915063509461096 0.7752411707507815 0.23290062818446644
v 0.5915063509461096 1.028587498606654 -0.04357837311933005
v 0.625 0.7324697203985264 0.19370781486875657
v 0.625 0.985816048254399 -0.08277118643503992
v 0.625 0.683081503649516 0.1484518522325089
v 0.625 0.9364278315053887 -0.1280271490712876
v 0.5915063509461096 0.640310053297261 0.10925903891679904
v 0.5915063509461096 0.8936563811531335 -0.16721996238699743
v 0.5334936490538904 0.6156159449227557 0.08663105759867523
v 0.5334936490538904 0.8689622727786284 -0.18984794370512126
v 0.4665063509461097 0.6156159449227557 0.0866310575986752
v 0.4665063509461097 0.8689622727786284 -0.18984794370512126
v 0.4084936490538903 0.6403100532972609 0.10925903891679903
v 0.4084936490538903 0.8936563811531335 -0.16721996238699743
v 0.375 0.683081503649516 0.14845185223250892
v 0.375 0.9364278315053887 -0.1280271490712876
v 0.375 0.7324697203985264 0.19370781486875654
v 0.375 0.985816048254399 -0.08277118643503997
v 0.4084936490538903 0.7752411707507815 0.2329006281844664
v 0.4084936490538903 1.028587498606654 -0.04357837311933008
v 0.46650635094610965 0.7999352791252867 0.25552860950259026
v 0.46650635094610965 1.0532816069811592 -0.020950391801206225
vt 0.37940937979190303 0.8102953101040455
vt 0.36207200540068535 0.8749999999999971
vt 0.25 0.8102953101040455
vt 0.0624999999999981 0.625
vt 0.1294874999999981 0.625
vt 0.1294874999999981 1
vt 0.0624999999999981 1
vt 0.06249999999999998 0.6205904513219271
vt 0.1272046054529768 0.6379281408590917
vt 0.0625 0.75
vt 0.37940954867807286 0.8102953945470261
vt 0.36207185914090834 0.8750000000000029
vt 0.25 0.8102953945470261
vt 0.0624999999999981 0.625
vt 0.1294874999999981 0.625
vt 0.1294874999999981 1
vt 0.0624999999999981 1
vt 0.06250000000000001 0.620590620208097
vt 0.12720468989595152 0.6379279945993146
vt 0.0625 0.75
vt 0.375 0.8705125000000019
vt 0.375 0.9375000000000019
vt 0.25 0.9040062500000019
vt 0.0624999999999981 0.625
vt 0.1294874999999981 0.625
vt 0.1294874999999981 1
vt 0.0624999999999981 1
vt 0.375 0.8705125000000019
vt 0.375 0.9375000000000019
vt 0.25 0.9040062500000019
vt 0.06250000000000001 0.620590620208097
vt 0.12720468989595152 0.6379279945993146
vt 0.0625 0.75
vt 0.0624999999999981 0.625
vt 0.1294874999999981 0.625
vt 0.1294874999999981 1
vt 0.0624999999999981 1
vt 0.37940954867807286 0.8102953945470261
vt 0.36207185914090834 0.8750000000000029
vt 0.25 0.8102953945470261
vt 0.06249999999999998 0.6205904513219271
vt 0.1272046054529768 0.6379281408590917
vt 0.0625 0.75
vt 0.0624999999999981 0.625
vt 0.1294874999999981 0.625
vt 0.1294874999999981 1
vt 0.0624999999999981 1
vt 0.37940937979190303 0.8102953101040455
vt 0.36207200540068535 0.8749999999999971
vt 0.25 0.8102953101040455
vt 0.0624999999999981 0.625
vt 0.1294874999999981 0.625
vt 0.0959937499999981 0.75
vt 0.0624999999999981 0.625
vt 0.1294874999999981 0.625
vt 0.1294874999999981 1
vt 0.0624999999999981 1
vt 0.1294874999999981 0.875
vt 0.0624999999999981 0.875
vt 0.0959937499999981 0.75
vt 0.12499999999999878 0.9375
vt 0.14233737439121646 0.8727953101040484
vt 0.2544093797919018 0.9375
vt 0.0624999999999981 0.625
vt 0.1294874999999981 0.625
vt 0.1294874999999981 1
vt 0.0624999999999981 1
vt 0.18970460545297388 0.8749999999999967
vt 0.12499999999999706 0.8576623104628321
vt 0.18970460545297385 0.7455904513219238
vt 0.12500000000000336 0.9375
vt 0.14233768953716783 0.8727953945470233
vt 0.2544095486780762 0.9375
vt 0.0624999999999981 0.625
vt 0.1294874999999981 0.625
vt 0.1294874999999981 1
vt 0.0624999999999981 1
vt 0.18970468989595446 0.8750000000000012
vt 0.12500000000000294 0.8576626256087836
vt 0.18970468989595446 0.7455906202080982
vt 0.125 0.9375000000000019
vt 0.125 0.8705125000000019
vt 0.25 0.9040062500000019
vt 0.06249999999999811 0.625
vt 0.1294874999999981 0.625
vt 0.1294874999999981 1
vt 0.06249999999999811 1
vt 0.125 0.9375000000000019
vt 0.125 0.8705125000000019
vt 0.25 0.9040062500000019
vt 0.18970468989595446 0.8750000000000012
vt 0.12500000000000294 0.8576626256087836
vt 0.18970468989595446 0.7455906202080982
vt 0.0624999999999981 0.625
vt 0.1294874999999981 0.625
vt 0.1294874999999981 1
vt 0.0624999999999981 1
vt 0.12500000000000336 0.9375
vt 0.14233768953716783 0.8727953945470233
vt 0.2544095486780762 0.9375
vt 0.18970460545297388 0.8749999999999967
vt 0.12499999999999706 0.8576623104628321
vt 0.18970460545297385 0.7455904513219238
vt 0.06249999999999811 0.625
vt 0.1294874999999981 0.625
vt 0.1294874999999981 1
vt 0.06249999999999811 1
vt 0.12499999999999878 0.9375
vt 0.14233737439121646 0.8727953101040484
vt 0.2544093797919018 0.9375
vt 0.1294874999999981 0.875
vt 0.0624999999999981 0.875
vt 0.0959937499999981 0.75
vt 0.06249999999999811 0.625
vt 0.1294874999999981 0.625
vt 0.1294874999999981 1
vt 0.06249999999999811 1
vt 0.0624999999999981 0.625
vt 0.1294874999999981 0.625
vt 0.0959937499999981 0.75
vn 0 -0.6755902076156604 0.7372773368101241
vn 0.5 0.6385009033121032 0.585078282343165
vn 0 0.6755902076156604 -0.7372773368101241
vn 0 -0.6755902076156604 0.7372773368101241
vn 0.8660254037844386 0.3686386684050621 0.33779510380783023
vn 0 0.6755902076156604 -0.7372773368101241
vn 0 -0.6755902076156604 0.7372773368101241
vn 1 0 0
vn 0 0.6755902076156604 -0.7372773368101241
vn 0 -0.6755902076156604 0.7372773368101241
vn 0.8660254037844387 -0.3686386684050621 -0.33779510380783023
vn 0 0.6755902076156604 -0.7372773368101241
vn 0 -0.6755902076156604 0.7372773368101241
vn 0.5 -0.6385009033121033 -0.5850782823431651
vn 0 0.6755902076156604 -0.7372773368101241
vn 0 -0.6755902076156604 0.7372773368101241
vn 6.215113103450819e-16 -0.7372773368101241 -0.6755902076156604
vn 0 0.6755902076156604 -0.7372773368101241
vn 0 -0.6755902076156604 0.7372773368101241
vn -0.49999999999999967 -0.6385009033121034 -0.5850782823431651
vn 0 0.6755902076156604 -0.7372773368101241
vn 0 -0.6755902076156604 0.7372773368101241
vn -0.866025403784439 -0.36863866840506165 -0.33779510380782984
vn 0 0.6755902076156604 -0.7372773368101241
vn 0 -0.6755902076156604 0.7372773368101241
vn -1 -4.582262036885928e-16 -4.198869551915153e-16
vn 0 0.6755902076156604 -0.7372773368101241
vn 0 -0.6755902076156604 0.7372773368101241
vn -0.8660254037844388 0.3686386684050618 0.33779510380782996
vn 0 0.6755902076156604 -0.7372773368101241
vn 0 -0.6755902076156604 0.7372773368101241
vn -0.49999999999999994 0.6385009033121033 0.5850782823431651
vn 0 0.6755902076156604 -0.7372773368101241
vn 0 -0.6755902076156604 0.7372773368101241
vn 0 0.7372773368101241 0.6755902076156604
vn 0 0.6755902076156604 -0.7372773368101241
usemtl texture1
f 128/493/133 126/494/133 124/495/133
f 126/496/134 128/497/134 129/498/134 127/499/134
f 127/500/135 129/501/135 125/502/135
f 130/503/136 128/504/136 124/505/136
f 128/506/137 130/507/137 131/508/137 129/509/137
f 129/510/138 131/511/138 125/512/138
f 132/513/139 130/514/139 124/515/139
f 130/516/140 132/517/140 133/518/140 131/519/140
f 131/520/141 133/521/141 125/522/141
f 134/523/142 132/524/142 124/525/142
f 132/526/143 134/527/143 135/528/143 133/529/143
f 133/530/144 135/531/144 125/532/144
f 136/533/145 134/534/145 124/535/145
f 134/536/146 136/537/146 137/538/146 135/539/146
f 135/540/147 137/541/147 125/542/147
f 138/543/148 136/544/148 124/545/148
f 136/546/149 138/547/149 139/548/149 137/549/149
f 137/550/150 139/551/150 125/552/150
f 140/553/151 138/554/151 124/555/151
f 138/556/152 140/557/152 141/558/152 139/559/152
f 139/560/153 141/561/153 125/562/153
f 142/563/154 140/564/154 124/565/154
f 140/566/155 142/567/155 143/568/155 141/569/155
f 141/570/156 143/571/156 125/572/156
f 144/573/157 142/574/157 124/575/157
f 142/576/158 144/577/158 145/578/158 143/579/158
f 143/580/159 145/581/159 125/582/159
f 146/583/160 144/584/160 124/585/160
f 144/586/161 146/587/161 147/588/161 145/589/161
f 145/590/162 147/591/162 125/592/162
f 148/593/163 146/594/163 124/595/163
f 146/596/164 148/597/164 149/598/164 147/599/164
f 147/600/165 149/601/165 125/602/165
f 126/603/166 148/604/166 124/605/166
f 148/606/167 126/607/167 127/608/167 149/609/167
f 149/610/168 127/611/168 125/612/168