# Made in Blockbench 4.12.3
mtllib telescope.mtl

o cube
v 0.4912410321046553 0.7712711203038628 0.5411799414797528
v 0.4934671267089098 0.8287739919427174 0.430213891464001
v 0.11939466802871837 -0.04986451755764241 0.10820587094286144
v 0.12162076263297286 0.007638354081212287 -0.0027601790728902786
v 0.3774516960472185 0.8710001554191474 0.4497681995940299
v 0.375225601442964 0.8134972837802928 0.5607342496097817
v 0.00560533197128163 0.04986451755764241 0.01679412905713857
v 0.003379237367027138 -0.007638354081212287 0.12776017907289028
vt 0.5 1
vt 0.625 1
vt 0.625 0
vt 0.5 0
vt 0.625 1
vt 0.75 1
vt 0.75 0
vt 0.625 0
vt 0.75 1
vt 0.875 1
vt 0.875 0
vt 0.75 0
vt 0.8125 1
vt 0.9375 1
vt 0.9375 0
vt 0.8125 0
vt 0.9375 0.0625
vt 0.8125 0.0625
vt 0.8125 0.1875
vt 0.9375 0.1875
vt 0.9375 0.1875
vt 0.8125 0.1875
vt 0.8125 0.0625
vt 0.9375 0.0625
vn 0.017808756834036016 0.4600229731108375 -0.8877284001260137
vn 0.92812344529353 -0.3378093078114409 -0.15643446504023087
vn -0.017808756834036016 -0.4600229731108375 0.8877284001260137
vn -0.92812344529353 0.3378093078114409 0.15643446504023087
vn 0.371846364075937 0.8211356378615051 0.4329740705368914
vn -0.371846364075937 -0.8211356378615051 -0.4329740705368914
usemtl m_19e934fd-548c-d038-7ec8-6c10f0ca27b0
f 4/4/1 7/3/1 5/2/1 2/1/1
f 3/8/2 4/7/2 2/6/2 1/5/2
f 8/12/3 3/11/3 1/10/3 6/9/3
f 7/16/4 8/15/4 6/14/4 5/13/4
f 6/20/5 1/19/5 2/18/5 5/17/5
f 7/24/6 4/23/6 3/22/6 8/21/6
o cube
v 0.625 1 0.625
v 0.625 1 0.375
v 0.625 0.75 0.625
v 0.625 0.75 0.375
v 0.375 1 0.375
v 0.375 1 0.625
v 0.375 0.75 0.375
v 0.375 0.75 0.625
vt 0.75 1
vt 1 1
vt 1 0.75
vt 0.75 0.75
vt 0.75 0.75
vt 1 0.75
vt 1 0.5
vt 0.75 0.5
vt 0.75 0.5
vt 1 0.5
vt 1 0.25
vt 0.75 0.25
vt 0.75 0.25
vt 1 0.25
vt 1 0
vt 0.75 0
vt 1 0
vt 0.75 0
vt 0.75 0.25
vt 1 0.25
vt 1 0.25
vt 0.75 0.25
vt 0.75 0
vt 1 0
vn 0 0 -1
vn 1 0 0
vn 0 0 1
vn -1 0 0
vn 0 1 0
vn 0 -1 0
usemtl m_79293306-6035-4e10-c3cf-784e27abf350
f 12/28/7 15/27/7 13/26/7 10/25/7
f 11/32/8 12/31/8 10/30/8 9/29/8
f 16/36/9 11/35/9 9/34/9 14/33/9
f 15/40/10 16/39/10 14/38/10 13/37/10
f 14/44/11 9/43/11 10/42/11 13/41/11
f 15/48/12 12/47/12 11/46/12 16/45/12
o cube
v 0.624774398557036 0.8134972837802928 0.5607342496097817
v 0.6225483039527815 0.8710001554191474 0.4497681995940299
v 0.9966207626329728 -0.007638354081212287 0.12776017907289028
v 0.9943946680287183 0.04986451755764241 0.01679412905713857
v 0.5065328732910902 0.8287739919427174 0.430213891464001
v 0.5087589678953447 0.7712711203038628 0.5411799414797528
v 0.8783792373670272 0.007638354081212287 -0.0027601790728902786
v 0.8806053319712817 -0.04986451755764241 0.10820587094286144
vt 0.5 1
vt 0.625 1
vt 0.625 0
vt 0.5 0
vt 0.625 1
vt 0.75 1
vt 0.75 0
vt 0.625 0
vt 0.75 1
vt 0.875 1
vt 0.875 0
vt 0.75 0
vt 0.8125 1
vt 0.9375 1
vt 0.9375 0
vt 0.8125 0
vt 0.9375 0.0625
vt 0.8125 0.0625
vt 0.8125 0.1875
vt 0.9375 0.1875
vt 0.9375 0.1875
vt 0.8125 0.1875
vt 0.8125 0.0625
vt 0.9375 0.0625
vn -0.017808756834036016 0.4600229731108375 -0.8877284001260137
vn 0.92812344529353 0.3378093078114409 0.15643446504023087
vn 0.017808756834036016 -0.4600229731108375 0.8877284001260137
vn -0.92812344529353 -0.3378093078114409 -0.15643446504023087
vn -0.371846364075937 0.8211356378615051 0.4329740705368914
vn 0.371846364075937 -0.8211356378615051 -0.4329740705368914
usemtl m_19e934fd-548c-d038-7ec8-6c10f0ca27b0
f 20/52/13 23/51/13 21/50/13 18/49/13
f 19/56/14 20/55/14 18/54/14 17/53/14
f 24/60/15 19/59/15 17/58/15 22/57/15
f 23/64/16 24/63/16 22/62/16 21/61/16
f 22/68/17 17/67/17 18/66/17 21/65/17
f 23/72/18 20/71/18 19/70/18 24/69/18
o cube
v 0.4934671267089098 0.8287739919427174 0.569786108535999
v 0.4912410321046553 0.7712711203038628 0.4588200585202472
v 0.12162076263297286 0.007638354081212287 1.0027601790728902
v 0.11939466802871837 -0.04986451755764241 0.8917941290571386
v 0.375225601442964 0.8134972837802928 0.4392657503902183
v 0.3774516960472185 0.8710001554191474 0.5502318004059701
v 0.003379237367027138 -0.007638354081212287 0.8722398209271097
v 0.00560533197128163 0.04986451755764241 0.9832058709428614
vt 0.5 1
vt 0.625 1
vt 0.625 0
vt 0.5 0
vt 0.625 1
vt 0.75 1
vt 0.75 0
vt 0.625 0
vt 0.75 1
vt 0.875 1
vt 0.875 0
vt 0.75 0
vt 0.8125 1
vt 0.9375 1
vt 0.9375 0
vt 0.8125 0
vt 0.9375 0.0625
vt 0.8125 0.0625
vt 0.8125 0.1875
vt 0.9375 0.1875
vt 0.9375 0.1875
vt 0.8125 0.1875
vt 0.8125 0.0625
vt 0.9375 0.0625
vn -0.017808756834036016 -0.4600229731108375 -0.8877284001260137
vn 0.92812344529353 -0.3378093078114409 0.15643446504023087
vn 0.017808756834036016 0.4600229731108375 0.8877284001260137
vn -0.92812344529353 0.3378093078114409 -0.15643446504023087
vn 0.371846364075937 0.8211356378615051 -0.4329740705368914
vn -0.371846364075937 -0.8211356378615051 0.4329740705368914
usemtl m_19e934fd-548c-d038-7ec8-6c10f0ca27b0
f 28/76/19 31/75/19 29/74/19 26/73/19
f 27/80/20 28/79/20 26/78/20 25/77/20
f 32/84/21 27/83/21 25/82/21 30/81/21
f 31/88/22 32/87/22 30/86/22 29/85/22
f 30/92/23 25/91/23 26/90/23 29/89/23
f 31/96/24 28/95/24 27/94/24 32/93/24
o cube
v 0.6225483039527815 0.8710001554191474 0.5502318004059701
v 0.624774398557036 0.8134972837802928 0.4392657503902183
v 0.9943946680287183 0.04986451755764241 0.9832058709428614
v 0.9966207626329728 -0.007638354081212287 0.8722398209271097
v 0.5087589678953447 0.7712711203038628 0.4588200585202472
v 0.5065328732910902 0.8287739919427174 0.569786108535999
v 0.8806053319712817 -0.04986451755764241 0.8917941290571386
v 0.8783792373670272 0.007638354081212287 1.0027601790728902
vt 0.5 1
vt 0.625 1
vt 0.625 0
vt 0.5 0
vt 0.625 1
vt 0.75 1
vt 0.75 0
vt 0.625 0
vt 0.75 1
vt 0.875 1
vt 0.875 0
vt 0.75 0
vt 0.8125 1
vt 0.9375 1
vt 0.9375 0
vt 0.8125 0
vt 0.9375 0.0625
vt 0.8125 0.0625
vt 0.8125 0.1875
vt 0.9375 0.1875
vt 0.9375 0.1875
vt 0.8125 0.1875
vt 0.8125 0.0625
vt 0.9375 0.0625
vn 0.017808756834036016 -0.4600229731108375 -0.8877284001260137
vn 0.92812344529353 0.3378093078114409 -0.15643446504023087
vn -0.017808756834036016 0.4600229731108375 0.8877284001260137
vn -0.92812344529353 -0.3378093078114409 0.15643446504023087
vn -0.371846364075937 0.8211356378615051 -0.4329740705368914
vn 0.371846364075937 -0.8211356378615051 0.4329740705368914
usemtl m_19e934fd-548c-d038-7ec8-6c10f0ca27b0
f 36/100/25 39/99/25 37/98/25 34/97/25
f 35/104/26 36/103/26 34/102/26 33/101/26
f 40/108/27 35/107/27 33/106/27 38/105/27
f 39/112/28 40/111/28 38/110/28 37/109/28
f 38/116/29 33/115/29 34/114/29 37/113/29
f 39/120/30 36/119/30 35/118/30 40/117/30
o cube
v 0.5625 1.4032892465101803 0.13054900423951699
v 0.5625 1.2950360710371254 0.06804900423951699
v 0.5625 0.80953924651018 1.158954171233538
v 0.5625 0.7012860710371253 1.0964541712335378
v 0.4375 1.2950360710371254 0.06804900423951699
v 0.4375 1.4032892465101803 0.13054900423951699
v 0.4375 0.7012860710371253 1.0964541712335378
v 0.4375 0.80953924651018 1.158954171233538
vt 0 1
vt 0.125 1
vt 0.125 0
vt 0 0
vt 0.125 1
vt 0.25 1
vt 0.25 0
vt 0.125 0
vt 0.25 1
vt 0.375 1
vt 0.375 0
vt 0.25 0
vt 0.375 1
vt 0.5 1
vt 0.5 0
vt 0.375 0
vt 1 0
vt 0.875 0
vt 0.875 0.125
vt 1 0.125
vt 1 0.125
vt 0.875 0.125
vt 0.875 0
vt 1 0
vn 0 -0.8660254037844386 -0.5000000000000001
vn 1 0 0
vn 0 0.8660254037844386 0.5000000000000001
vn -1 0 0
vn 0 0.5000000000000001 -0.8660254037844386
vn 0 -0.5000000000000001 0.8660254037844386
usemtl m_2f47ca14-257c-ba4a-0d63-b66c8daac7ae
f 44/124/31 47/123/31 45/122/31 42/121/31
f 43/128/32 44/127/32 42/126/32 41/125/32
f 48/132/33 43/131/33 41/130/33 46/129/33
f 47/136/34 48/135/34 46/134/34 45/133/34
f 46/140/35 41/139/35 42/138/35 45/137/35
f 47/144/36 44/143/36 43/142/36 48/141/36
o cube
v 0.625 1.545753175473055 0.01674682452694519
v 0.625 1.329246824526945 -0.10825317547305485
v 0.625 1.452003175473055 0.17912658773652743
v 0.625 1.235496824526945 0.0541265877365274
v 0.375 1.329246824526945 -0.10825317547305485
v 0.375 1.545753175473055 0.01674682452694519
v 0.375 1.235496824526945 0.0541265877365274
v 0.375 1.452003175473055 0.17912658773652743
vt 0.75 0.5
vt 1 0.5
vt 1 0.3125
vt 0.75 0.3125
vt 0.75 0.3125
vt 1 0.3125
vt 1 0.125
vt 0.75 0.125
vt 0.75 0.1875
vt 1 0.1875
vt 1 0
vt 0.75 0
vt 0.75 0.1875
vt 1 0.1875
vt 1 0
vt 0.75 0
vt 1 0.75
vt 0.75 0.75
vt 0.75 1
vt 1 1
vt 1 0.75
vt 0.75 0.75
vt 0.75 0.5
vt 1 0.5
vn 0 -0.8660254037844386 -0.5000000000000001
vn 1 0 0
vn 0 0.8660254037844386 0.5000000000000001
vn -1 0 0
vn 0 0.5000000000000001 -0.8660254037844386
vn 0 -0.5000000000000001 0.8660254037844386
usemtl m_79293306-6035-4e10-c3cf-784e27abf350
f 52/148/37 55/147/37 53/146/37 50/145/37
f 51/152/38 52/151/38 50/150/38 49/149/38
f 56/156/39 51/155/39 49/154/39 54/153/39
f 55/160/40 56/159/40 54/158/40 53/157/40
f 54/164/41 49/163/41 50/162/41 53/161/41
f 55/168/42 52/167/42 51/166/42 56/165/42
o cube
v 0.546875 1.125 0.5625
v 0.546875 1.125 0.4375
v 0.546875 1 0.5625
v 0.546875 1 0.4375
v 0.453125 1.125 0.4375
v 0.453125 1.125 0.5625
v 0.453125 1 0.4375
v 0.453125 1 0.5625
vt 0.90625 1
vt 1 1
vt 1 0.875
vt 0.90625 0.875
vt 0.875 0.125
vt 1 0.125
vt 1 0
vt 0.875 0
vt 0.90625 0.875
vt 1 0.875
vt 1 0.75
vt 0.90625 0.75
vt 0.875 0.125
vt 1 0.125
vt 1 0
vt 0.875 0
vt 1 0.625
vt 0.90625 0.625
vt 0.90625 0.75
vt 1 0.75
vt 1 0.625
vt 0.90625 0.625
vt 0.90625 0.5
vt 1 0.5
vn 0 0 -1
vn 1 0 0
vn 0 0 1
vn -1 0 0
vn 0 1 0
vn 0 -1 0
usemtl m_79293306-6035-4e10-c3cf-784e27abf350
f 60/172/43 63/171/43 61/170/43 58/169/43
f 59/176/44 60/175/44 58/174/44 57/173/44
f 64/180/45 59/179/45 57/178/45 62/177/45
f 63/184/46 64/183/46 62/182/46 61/181/46
f 62/188/47 57/187/47 58/186/47 61/185/47
f 63/192/48 60/191/48 59/190/48 64/189/48